<mxfile host="65bd71144e" modified="2020-10-16T06:34:28.386Z" agent="5.0 (Windows NT 10.0; Win64; x64) AppleWebKit/537.36 (KHTML, like Gecko) Code/1.50.0 Chrome/83.0.4103.122 Electron/9.2.1 Safari/537.36" version="13.6.5" etag="kPsEm8zUWXhc-SqnPR3q">
    <diagram id="WdSSm3mxKbkXKkGnevVz" name="第 1 页">
        <mxGraphModel dx="1121" dy="760" grid="1" gridSize="10" guides="1" tooltips="1" connect="1" arrows="1" fold="1" page="1" pageScale="1" pageWidth="827" pageHeight="1169" background="none" math="0" shadow="0">
            <root>
                <mxCell id="0"/>
                <mxCell id="1" parent="0"/>
                <mxCell id="25" value="JVM" style="rounded=1;whiteSpace=wrap;html=1;" vertex="1" parent="1">
                    <mxGeometry x="294" y="290" width="120" height="60" as="geometry"/>
                </mxCell>
                <mxCell id="35" style="edgeStyle=orthogonalEdgeStyle;rounded=0;orthogonalLoop=1;jettySize=auto;html=1;" edge="1" parent="1" source="26" target="34">
                    <mxGeometry relative="1" as="geometry"/>
                </mxCell>
                <mxCell id="26" value="字节码" style="rounded=1;whiteSpace=wrap;html=1;" vertex="1" parent="1">
                    <mxGeometry x="70" y="220" width="120" height="60" as="geometry"/>
                </mxCell>
                <mxCell id="27" value="类加载" style="rounded=1;whiteSpace=wrap;html=1;" vertex="1" parent="1">
                    <mxGeometry x="70" y="360" width="120" height="60" as="geometry"/>
                </mxCell>
                <mxCell id="28" value="" style="endArrow=classic;html=1;entryX=1;entryY=0.5;entryDx=0;entryDy=0;exitX=0;exitY=0.5;exitDx=0;exitDy=0;" edge="1" parent="1" source="25" target="26">
                    <mxGeometry width="50" height="50" relative="1" as="geometry">
                        <mxPoint x="420" y="420" as="sourcePoint"/>
                        <mxPoint x="470" y="370" as="targetPoint"/>
                    </mxGeometry>
                </mxCell>
                <mxCell id="29" value="" style="endArrow=classic;html=1;entryX=1;entryY=0.5;entryDx=0;entryDy=0;exitX=0;exitY=0.5;exitDx=0;exitDy=0;" edge="1" parent="1" source="25" target="27">
                    <mxGeometry width="50" height="50" relative="1" as="geometry">
                        <mxPoint x="420" y="420" as="sourcePoint"/>
                        <mxPoint x="470" y="370" as="targetPoint"/>
                    </mxGeometry>
                </mxCell>
                <mxCell id="30" value="JMM" style="rounded=1;whiteSpace=wrap;html=1;" vertex="1" parent="1">
                    <mxGeometry x="520" y="220" width="120" height="60" as="geometry"/>
                </mxCell>
                <mxCell id="31" value="" style="endArrow=classic;html=1;entryX=0;entryY=0.5;entryDx=0;entryDy=0;" edge="1" parent="1" target="30">
                    <mxGeometry width="50" height="50" relative="1" as="geometry">
                        <mxPoint x="414" y="320" as="sourcePoint"/>
                        <mxPoint x="464" y="270" as="targetPoint"/>
                    </mxGeometry>
                </mxCell>
                <mxCell id="32" value="jvm参数" style="rounded=1;whiteSpace=wrap;html=1;" vertex="1" parent="1">
                    <mxGeometry x="520" y="360" width="120" height="60" as="geometry"/>
                </mxCell>
                <mxCell id="33" value="" style="endArrow=classic;html=1;entryX=0;entryY=0.5;entryDx=0;entryDy=0;exitX=1;exitY=0.5;exitDx=0;exitDy=0;" edge="1" parent="1" source="25" target="32">
                    <mxGeometry width="50" height="50" relative="1" as="geometry">
                        <mxPoint x="420" y="420" as="sourcePoint"/>
                        <mxPoint x="470" y="370" as="targetPoint"/>
                    </mxGeometry>
                </mxCell>
                <mxCell id="37" style="edgeStyle=orthogonalEdgeStyle;rounded=0;orthogonalLoop=1;jettySize=auto;html=1;" edge="1" parent="1" source="34" target="36">
                    <mxGeometry relative="1" as="geometry"/>
                </mxCell>
                <mxCell id="34" value="&lt;h1&gt;字节码&lt;/h1&gt;&lt;p&gt;Java bytecode由单字节（byte）的指令组成，理论上最多支持256个操作码（opcode）。实际上java只使用了200左右的操作码，还有一些操作码则保留给调试操作。&lt;/p&gt;" style="text;html=1;strokeColor=none;fillColor=none;spacing=5;spacingTop=-20;whiteSpace=wrap;overflow=hidden;rounded=0;" vertex="1" parent="1">
                    <mxGeometry x="-190" y="190" width="190" height="120" as="geometry"/>
                </mxCell>
                <mxCell id="36" value="&lt;h1&gt;指令的性质&lt;/h1&gt;&lt;p&gt;1.栈操作指令，包括与局部变量交互的指令。&lt;/p&gt;&lt;p&gt;2.程序流程控制指令&lt;/p&gt;&lt;p&gt;3.对象操作指令，包括方法调用指令&lt;/p&gt;&lt;p&gt;4.算术运算以及类型转换指令&lt;/p&gt;" style="text;html=1;strokeColor=none;fillColor=none;spacing=5;spacingTop=-20;whiteSpace=wrap;overflow=hidden;rounded=0;" vertex="1" parent="1">
                    <mxGeometry x="-520" y="175" width="250" height="150" as="geometry"/>
                </mxCell>
                <mxCell id="39" value="&lt;h1&gt;生命周期&lt;/h1&gt;&lt;p&gt;1.加载 2.验证 3.准备 4.解析&lt;br&gt;5.初始化 6使用 7.卸载&lt;br&gt;&lt;br&gt;&lt;span style=&quot;color: rgb(136 , 0 , 0) ; font-family: &amp;#34;source code pro&amp;#34; , &amp;#34;dejavu sans mono&amp;#34; , &amp;#34;ubuntu mono&amp;#34; , &amp;#34;anonymous pro&amp;#34; , &amp;#34;droid sans mono&amp;#34; , &amp;#34;menlo&amp;#34; , &amp;#34;monaco&amp;#34; , &amp;#34;consolas&amp;#34; , &amp;#34;inconsolata&amp;#34; , &amp;#34;courier&amp;#34; , monospace , &amp;#34;pingfang sc&amp;#34; , &amp;#34;microsoft yahei&amp;#34; , sans-serif ; font-size: 14px ; background-color: rgb(246 , 248 , 250)&quot;&gt;通过子类引用父类的静态字段,不会导致子类初始化&lt;br&gt;&lt;/span&gt;&lt;br&gt;&lt;/p&gt;&lt;p&gt;&lt;span style=&quot;color: rgb(136 , 0 , 0) ; font-family: &amp;#34;source code pro&amp;#34; , &amp;#34;dejavu sans mono&amp;#34; , &amp;#34;ubuntu mono&amp;#34; , &amp;#34;anonymous pro&amp;#34; , &amp;#34;droid sans mono&amp;#34; , &amp;#34;menlo&amp;#34; , &amp;#34;monaco&amp;#34; , &amp;#34;consolas&amp;#34; , &amp;#34;inconsolata&amp;#34; , &amp;#34;courier&amp;#34; , monospace , &amp;#34;pingfang sc&amp;#34; , &amp;#34;microsoft yahei&amp;#34; , sans-serif ; font-size: 14px ; background-color: rgb(246 , 248 , 250)&quot;&gt;常量在编译阶段会存入调用类的常量池，&lt;/span&gt;&lt;br&gt;&lt;/p&gt;" style="text;html=1;strokeColor=none;fillColor=none;spacing=5;spacingTop=-20;whiteSpace=wrap;overflow=hidden;rounded=0;" vertex="1" parent="1">
                    <mxGeometry x="-200" y="350" width="200" height="300" as="geometry"/>
                </mxCell>
            </root>
        </mxGraphModel>
    </diagram>
</mxfile>